<svg width="50" height="50" viewBox="0 0 50 50" fill="none" xmlns="http://www.w3.org/2000/svg">
<path d="M38.1565 39.9713L39.7863 38.3748C47.3271 38.6177 47.443 38.357 47.7744 37.5927L49.8461 32.6194L50 32.148L49.8316 31.7354C49.7428 31.5176 49.4694 30.8676 44.761 26.4407V24.1121C50.1938 18.9513 50.0779 18.687 49.7682 17.9317L47.7055 12.9066C47.3959 12.153 47.2782 11.8584 39.7917 12.0601L38.1619 10.3994C38.3301 7.95312 38.2446 5.49629 37.9066 3.06715L37.6965 2.5975L32.3108 0.276039C31.5176 -0.0811097 31.2387 -0.209683 26.1536 5.25111L23.8682 5.21719C18.6327 -0.293613 18.3846 -0.193611 17.6005 0.118893L12.5933 2.11535C11.8091 2.42786 11.5321 2.53857 11.8363 10.0387L10.2191 11.628C2.682 11.3851 2.5661 11.6494 2.23832 12.4102L0.162985 17.3852L0 17.862L0.170228 18.2763C0.258964 18.4906 0.521551 19.1335 5.24086 23.5657V25.8871C-0.191959 31.0479 -0.0742484 31.3122 0.237233 32.0694L2.29808 37.0998C2.61318 37.8695 2.72546 38.1427 10.2101 37.9498L11.8399 39.6195C11.671 42.062 11.7541 44.5151 12.088 46.941L12.2981 47.4143L17.7182 49.75C18.506 50.075 18.7794 50.1911 23.8501 44.7499L26.1355 44.7785C31.3781 50.2964 31.6461 50.1893 32.4122 49.8839L37.4085 47.8928C38.1981 47.5839 38.4734 47.475 38.1565 39.9713ZM16.6824 28.3211C16.0504 26.6926 15.9203 24.9163 16.3084 23.2152C16.6964 21.5141 17.5853 19.9638 18.8635 18.759C20.1417 17.5541 21.7523 16.7484 23.4932 16.4428C25.2341 16.1372 27.0277 16.3454 28.649 17.0413C30.2703 17.7372 31.6471 18.8898 32.6066 20.3544C33.5662 21.819 34.0656 23.5304 34.0424 25.2739C34.0192 27.0174 33.4743 28.7153 32.4762 30.1546C31.478 31.5938 30.071 32.7104 28.4317 33.364C26.1951 34.2265 23.703 34.1801 21.501 33.235C19.299 32.2898 17.5664 30.523 16.6824 28.3211Z" fill="white"/>
</svg>
