<svg width="896" height="897" viewBox="0 0 896 897" fill="none" xmlns="http://www.w3.org/2000/svg">
<path d="M96 193H32C23.5131 193 15.3737 189.629 9.37258 183.627C3.37142 177.626 0 169.487 0 161C0 152.513 3.37142 144.374 9.37258 138.373C15.3737 132.371 23.5131 129 32 129H288V32.936C288 24.4491 291.371 16.3098 297.373 10.3086C303.374 4.30743 311.513 0.936005 320 0.936005H576C584.487 0.936005 592.626 4.30743 598.627 10.3086C604.629 16.3098 608 24.4491 608 32.936V129H864C872.487 129 880.626 132.371 886.627 138.373C892.629 144.374 896 152.513 896 161C896 169.487 892.629 177.626 886.627 183.627C880.626 189.629 872.487 193 864 193H800V865C800 873.487 796.629 881.626 790.627 887.627C784.626 893.629 776.487 897 768 897H128C119.513 897 111.374 893.629 105.373 887.627C99.3714 881.626 96 873.487 96 865V193ZM544 129V65H352V129H544ZM160 833H736V193H160V833ZM352 705C343.513 705 335.374 701.629 329.373 695.627C323.371 689.626 320 681.487 320 673V353C320 344.513 323.371 336.374 329.373 330.373C335.374 324.371 343.513 321 352 321C360.487 321 368.626 324.371 374.627 330.373C380.629 336.374 384 344.513 384 353V673C384 681.487 380.629 689.626 374.627 695.627C368.626 701.629 360.487 705 352 705ZM544 705C535.513 705 527.374 701.629 521.373 695.627C515.371 689.626 512 681.487 512 673V353C512 344.513 515.371 336.374 521.373 330.373C527.374 324.371 535.513 321 544 321C552.487 321 560.626 324.371 566.627 330.373C572.629 336.374 576 344.513 576 353V673C576 681.487 572.629 689.626 566.627 695.627C560.626 701.629 552.487 705 544 705Z" fill="#FD6584"/>
</svg>
