<svg width="38" height="38" viewBox="0 0 38 38" fill="none" xmlns="http://www.w3.org/2000/svg">
<path d="M33.3333 37.5H4.16667C3.0616 37.5 2.00179 37.061 1.22039 36.2796C0.438987 35.4982 0 34.4384 0 33.3333V25H4.16667V33.3333H33.3333V4.16667H4.16667V12.5H0V4.16667C0 3.0616 0.438987 2.00179 1.22039 1.22039C2.00179 0.438987 3.0616 0 4.16667 0H33.3333C34.4384 0 35.4982 0.438987 36.2796 1.22039C37.061 2.00179 37.5 3.0616 37.5 4.16667V33.3333C37.5 34.4384 37.061 35.4982 36.2796 36.2796C35.4982 37.061 34.4384 37.5 33.3333 37.5ZM16.6667 27.0833V20.8333H0V16.6667H16.6667V10.4167L27.0833 18.75L16.6667 27.0833Z" fill="#FD6584"/>
</svg>
