<svg width="50" height="50" viewBox="0 0 50 50" fill="none" xmlns="http://www.w3.org/2000/svg">
<path d="M48.7903 10.2465C48.0145 8.24139 46.8959 6.42436 45.4971 4.89716C44.0972 3.36539 42.4468 2.14812 40.6354 1.31154C38.7572 0.440612 36.7427 -0.00517999 34.7088 4.54105e-05C31.8555 4.54105e-05 29.0716 0.872222 26.6524 2.51967C26.0736 2.91376 25.5238 3.34662 25.0029 3.81824C24.482 3.34662 23.9321 2.91376 23.3534 2.51967C20.9341 0.872222 18.1502 4.54105e-05 15.2969 4.54105e-05C13.2423 4.54105e-05 11.2513 0.439364 9.37029 1.31154C7.55295 2.15141 5.91503 3.35954 4.50862 4.89716C3.10798 6.42264 1.9891 8.24009 1.21542 10.2465C0.410927 12.3333 0 14.5492 0 16.8298C0 18.9812 0.393564 21.223 1.1749 23.5036C1.82891 25.4095 2.76652 27.3864 3.96457 29.3827C5.86294 32.5419 8.47319 35.8368 11.7143 39.1769C17.0853 44.7136 22.4042 48.5383 22.6299 48.6934L24.0016 49.6754C24.6093 50.1082 25.3906 50.1082 25.9983 49.6754L27.37 48.6934C27.5958 48.5318 32.9089 44.7136 38.2856 39.1769C41.5267 35.8368 44.137 32.5419 46.0354 29.3827C47.2334 27.3864 48.1768 25.4095 48.825 23.5036C49.6064 21.223 49.9999 18.9812 49.9999 16.8298C50.0057 14.5492 49.5948 12.3333 48.7903 10.2465Z" fill="white"/>
</svg>
