<svg width="50" height="50" viewBox="0 0 50 50" fill="none" xmlns="http://www.w3.org/2000/svg">
<path d="M48.8773 42.3021L36.9183 30.342C38.7826 27.2817 39.766 23.7661 39.7601 20.1826C39.7601 9.36812 30.3897 2.55918e-07 19.5762 2.55918e-07C17.0053 -0.000415485 14.4595 0.505704 12.0842 1.48945C9.70896 2.47319 7.55073 3.91529 5.73282 5.73337C3.91492 7.55145 2.47296 9.70989 1.48931 12.0854C0.505655 14.4609 -0.000415445 17.007 2.55894e-07 19.5781C2.55894e-07 30.3894 9.37039 39.7607 20.1807 39.7607C23.6458 39.7638 27.0489 38.8417 30.0384 37.0895L42.0607 49.1193C42.6261 49.6833 43.392 50 44.1905 50C44.989 50 45.7549 49.6833 46.3203 49.1193L49.3045 46.1348C50.4786 44.9607 50.0514 43.4763 48.8773 42.3021ZM6.02541 19.5781C6.02499 17.7982 6.37519 16.0355 7.05599 14.391C7.7368 12.7464 8.73488 11.252 9.99323 9.99326C11.2516 8.7345 12.7456 7.73597 14.3898 7.05471C16.0341 6.37346 17.7965 6.02282 19.5762 6.02282C27.0637 6.02282 33.7347 12.6913 33.7347 20.1826C33.7338 23.7774 32.3056 27.2248 29.7639 29.7667C27.2222 32.3087 23.7752 33.7371 20.1807 33.7379C12.6932 33.7347 6.02541 27.0631 6.02541 19.5781Z" fill="#03045E"/>
</svg>
