<svg width="50" height="50" viewBox="0 0 50 50" fill="none" xmlns="http://www.w3.org/2000/svg">
<path d="M49.244 13.7714L44.4103 10.0692C43.5093 6.78656 41.6203 3.98409 39.0847 2.16837C36.5491 0.352653 33.5342 -0.356522 30.5849 0.169029C27.6356 0.69458 24.9466 2.42018 23.0038 5.03394C21.0611 7.64769 19.9928 10.9771 19.992 14.4205V18.5554L0.365672 46.8748C0.169899 47.1569 0.0469864 47.497 0.0110233 47.856C-0.0249397 48.215 0.0275028 48.5785 0.162339 48.9047C0.297176 49.2309 0.508948 49.5067 0.773381 49.7004C1.03781 49.8941 1.3442 49.998 1.65743 50H23.3256C29.0689 49.9873 34.5739 47.3491 38.6351 42.6631C42.6963 37.9771 44.9827 31.6252 44.9937 24.9982V20.2623L49.244 16.9928C49.4762 16.818 49.6669 16.5792 49.7989 16.298C49.9309 16.0167 50 15.7019 50 15.3821C50 15.0623 49.9309 14.7475 49.7989 14.4662C49.6669 14.185 49.4762 13.9462 49.244 13.7714ZM22.9297 30.0707L14.5958 41.61C14.2996 41.9374 13.9091 42.1272 13.4991 42.1432C13.0892 42.1591 12.6885 42.0001 12.3738 41.6965C12.0591 41.3929 11.8525 40.9661 11.7935 40.4977C11.7345 40.0293 11.8272 39.5523 12.054 39.1579L20.3879 27.6186C20.5175 27.3932 20.6868 27.2019 20.8848 27.0571C21.0828 26.9124 21.3051 26.8174 21.537 26.7785C21.769 26.7396 22.0055 26.7576 22.231 26.8313C22.4566 26.905 22.6661 27.0328 22.8459 27.2063C23.0258 27.3798 23.1719 27.5951 23.2747 27.8381C23.3775 28.0812 23.4347 28.3465 23.4427 28.6169C23.4506 28.8872 23.409 29.1564 23.3206 29.4069C23.2322 29.6574 23.099 29.8836 22.9297 30.0707ZM34.1596 15.3821C33.6652 15.3821 33.1818 15.2129 32.7706 14.8959C32.3595 14.5789 32.039 14.1284 31.8498 13.6013C31.6606 13.0741 31.611 12.4941 31.7075 11.9345C31.804 11.3749 32.0421 10.8609 32.3918 10.4574C32.7414 10.054 33.1869 9.77921 33.6719 9.66789C34.1569 9.55658 34.6596 9.61371 35.1164 9.83206C35.5733 10.0504 35.9637 10.4202 36.2385 10.8946C36.5132 11.369 36.6598 11.9267 36.6598 12.4973C36.6598 13.2624 36.3964 13.9962 35.9275 14.5372C35.4587 15.0782 34.8227 15.3821 34.1596 15.3821Z" fill="white"/>
</svg>
