<svg width="30" height="30" viewBox="0 0 30 30" fill="none" xmlns="http://www.w3.org/2000/svg">
<path d="M30 15.0055L25.6429 13.0106C25.2714 10.9805 24.3429 9.81534 24.3429 9.81534C23.787 9.1271 23.1268 8.58107 22.4 8.20852C21.6731 7.83597 20.894 7.6442 20.1071 7.6442C19.3203 7.6442 18.5411 7.83597 17.8143 8.20852C17.0875 8.58107 16.4273 9.1271 15.8714 9.81534L13.7571 12.4281L4.28571 0C2.85714 7.0614 4.28571 14.1228 7.78571 19.8072L0 29.1283C0 29.1283 12.7 32.659 20.1 25.5093C24.0429 21.6961 24.9286 19.4718 25.4857 17.1239L30 15.0055ZM22.4429 15.3938C21.8857 16.0823 20.9714 16.0823 20.4143 15.3938C20.2819 15.2305 20.1768 15.0365 20.1051 14.823C20.0334 14.6094 19.9965 14.3805 19.9965 14.1493C19.9965 13.9181 20.0334 13.6891 20.1051 13.4756C20.1768 13.262 20.2819 13.068 20.4143 12.9047C20.9714 12.2162 21.8857 12.2162 22.4429 12.9047C23 13.5932 23 14.7054 22.4429 15.3938Z" fill="#4ECB71"/>
</svg>
